# AST/ASF file generated using VICON BodyLanguage
# -----------------------------------------------
:version 1.10
:name VICON
:units
  mass 1.0
  length 0.45
  angle deg
:documentation
   .ast/.asf automatically generated from VICON data using
   VICON BodyBuilder and BodyLanguage model FoxedUp or BRILLIANT.MOD
:root
   order TX TY TZ RX RY RZ
   axis XYZ
   position 0 0 0  
   orientation 0 0 0 
:bonedata
  begin
     id 1 
     name lhipjoint
     direction 0.588788 -0.725889 0.355548 
     length 2.37778 
     axis 0 0 0  XYZ
  end
  begin
     id 2 
     name lfemur
     direction 0.34202 -0.939693 0  
     length 6.86393  
     axis 0 0 20  XYZ
    dof rx ry rz
    limits (-160.0 20.0)
           (-70.0 70.0)
           (-60.0 70.0)
  end
  begin
     id 3 
     name ltibia
     direction 0.34202 -0.939693 0   
     length 7.32851   
     axis 0 0 20   XYZ
    dof rx
    limits (-10.0 170.0)
  end
  begin
     id 4 
     name lfoot
     direction 0.0626533 -0.172138 0.983078   
     length 1.98929   
     axis -90 7.62852e-016 20   XYZ
    dof rx rz
    limits (-45.0 90.0)
           (-70.0 20.0)
  end
  begin
     id 5 
     name ltoes
     direction 1.53647e-011 -4.21734e-011 1   
     length 1.00479   
     axis -90 7.62852e-016 20   XYZ
    dof rx
    limits (-90.0 20.0)
  end
  begin
     id 6 
     name rhipjoint
     direction -0.59141 -0.724168 0.354705   
     length 2.38343  
     axis 0 0 0  XYZ 
  end
  begin
     id 7 
     name rfemur
     direction -0.34202 -0.939693 0   
     length 6.95589   
     axis 0 0 -20   XYZ
    dof rx ry rz
    limits (-160.0 20.0)
           (-70.0 70.0)
           (-70.0 60.0)
  end
  begin
     id 8 
     name rtibia
     direction -0.34202 -0.939693 0   
     length 7.32327   
     axis 0 0 -20   XYZ
    dof rx
    limits (-10.0 170.0)
 end
 begin
     id 9 
     name rfoot
     direction -0.0660461 -0.18146 0.981178   
     length 1.85272  
     axis -90 -7.62852e-016 -20   XYZ
    dof rx rz
    limits (-45.0 90.0)
           (-20.0 70.0)
  end
  begin
     id 10 
     name rtoes
     direction -1.53586e-011 -4.21988e-011 1   
     length 0.93746   
     axis -90 -7.62852e-016 -20   XYZ
    dof rx
    limits (-90.0 20.0)
  end
  begin
     id 11 
     name lowerback
     direction -0.0107982 0.991059 0.13299   
     length 1.98691   
     axis 0 0 0   XYZ
    dof rx ry rz
    limits (-20.0 45.0)
           (-30.0 30.0)
           (-30.0 30.0)
  end
  begin
     id 12 
     name upperback
     direction 0.0076296 0.999916 0.0104576   
     length 1.99501   
     axis 0 0 0   XYZ
    dof rx ry rz
    limits (-20.0 45.0)
           (-30.0 30.0)
           (-30.0 30.0)
  end
  begin
     id 13 
     name thorax
     direction 0.01176 0.998615 -0.0512909   
     length 2.03144   
     axis 0 0 0   XYZ
    dof rx ry rz
    limits (-20.0 45.0)
           (-30.0 30.0)
           (-30.0 30.0)
  end
  begin
     id 14 
     name lowerneck
     direction -0.0171909 0.999644 0.0204011   
     length 1.71818   
     axis 0 0 0   XYZ
    dof rx ry rz
    limits (-20.0 45.0)
           (-30.0 30.0)
           (-30.0 30.0)
  end
  begin
     id 15 
     name upperneck
     direction 0.0250902 0.997482 -0.0663316   
     length 1.66199   
     axis 0 0 0   XYZ
    dof rx ry rz
    limits (-20.0 45.0)
           (-30.0 30.0)
           (-30.0 30.0)
  end
  begin
     id 16
     name head
     direction 0.00881535 0.99956 -0.0283365  
     length 1.81545  
     axis 0 0 0   XYZ
    dof rx ry rz
    limits (-20.0 45.0)
           (-30.0 30.0)
           (-30.0 30.0)
  end
  begin
     id 17 
     name lclavicle
     direction 0.840411 0.486876 -0.238035  
     length 3.30409  
     axis 0 0 0   XYZ
    dof ry rz
    limits (-20.0 10.0)
           (0.0 20.0)
  end
  begin
     id 18 
     name lhumerus
     direction 1 -4.48977e-011 -5.16239e-027   
     length 4.62672   
     axis 180 -30 -90   XYZ
    dof rx ry rz
    limits (-60.0 90.0)
           (-90.0 90.0)
           (-90.0 90.0)
  end
  begin
     id 19
     name lradius
     direction 1 -4.48977e-011 -8.71171e-027   
     length 3.11018   
     axis 180 -30 -90   XYZ
    dof rx
    limits (-10.0 170.0)
  end
  begin
     id 20
     name lwrist
     direction 1 -4.48912e-011 -1.03764e-026   
     length 1.55509   
     axis 9.09556e-015 90 90   XYZ
    dof ry
    limits (-180.0 0.0)
 end
  begin
     id 21 
     name lhand
     direction 1 -4.49072e-011 -2.07528e-026   
     length 0.743834   
     axis 1.3242e-014 90 90   XYZ
    dof rx rz
    limits (-90.0 90.0)
           (-45.0 45.0)
  end
  begin
     id 22 
     name lfingers
     direction 1 -4.48909e-011 -4.15056e-026   
     length 0.599698   
     axis 2.64841e-014 90 90   XYZ
    dof rx
    limits (0.0 90.0)
  end
  begin
     id 23
     name lthumb
     direction 0.707107 -6.35013e-011 0.707107   
     length 0.86105   
     axis -90 45 2.85299e-015   XYZ
    dof rx rz
    limits (-45.0 45.0)
           (-45.0 45.0)
  end
  begin
     id 24 
     name rclavicle
     direction -0.835208 0.500237 -0.228452   
     length 3.2716  
     axis 0 0 0   XYZ 
    dof ry rz
    limits (-10.0 20.0)
           (-20.0 0.0)
  end
  begin
     id 25 
     name rhumerus
     direction -1 -4.48978e-011 -5.1953e-028  
     length 4.55919   
     axis 180 30 90   XYZ
    dof rx ry rz
    limits (-90.0 60.0)
           (-90.0 90.0)
           (-90.0 90.0)
  end
  begin
     id 26 
     name rradius
     direction -1 -4.48961e-011 -5.99546e-027   
     length 3.22748   
     axis 180 30 90   XYZ
    dof rx
    limits (-10.0 170.0)
  end
  begin
     id 27 
     name rwrist
     direction -1 -4.48986e-011 -1.03764e-026   
     length 1.61374   
     axis 9.09556e-015 -90 -90   XYZ
    dof ry
    limits (-180.0 0.0)
  end
  begin
     id 28
     name rhand
     direction -1 -4.4899e-011 -2.07528e-026   
     length 0.700882   
     axis 1.3242e-014 -90 -90   XYZ
    dof rx rz
    limits (-90.0 90.0)
           (-45.0 45.0)
  end
  begin
     id 29
     name rfingers
     direction -1 -4.48991e-011 -4.15056e-026   
     length 0.565069   
     axis 2.64841e-014 -90 -90   XYZ
    dof rx
    limits (0.0 90.0)
  end
  begin
     id 30
     name rthumb
     direction -0.707107 -6.34804e-011 0.707107   
     length 0.811329   
     axis -90 -45 -2.85299e-015   XYZ
    dof rx rz
    limits (-45.0 45.0)
           (-45.0 45.0)
  end
:hierarchy
  begin
    root lhipjoint rhipjoint lowerback
    lhipjoint lfemur
    lfemur ltibia
    ltibia lfoot
    lfoot ltoes
    rhipjoint rfemur
    rfemur rtibia
    rtibia rfoot
    rfoot rtoes
    lowerback upperback
    upperback thorax
    thorax lowerneck lclavicle rclavicle
    lowerneck upperneck
    upperneck head
    lclavicle lhumerus
    lhumerus lradius
    lradius lwrist
    lwrist lhand lthumb
    lhand lfingers
    rclavicle rhumerus
    rhumerus rradius
    rradius rwrist
    rwrist rhand rthumb
    rhand rfingers
  end

#!OML:ASF F:\VICON\USERDATA\INSTALL\SteveWalk\SteveWalk.ASF
:FULLY-SPECIFIED
:DEGREES
112
root -0.0734865 16.4586 -17.7643 16.0126 3.62703 0.0355886
lowerback -14.9932 -0.47627 0.421076
upperback -4.86304 -0.762885 1.8706
thorax 3.2771 -0.367735 1.58964
lowerneck -2.62052 -1.48934 0.384672
upperneck 11.8962 -1.70815 -2.91882
head 4.34883 -0.961755 -1.12739
rclavicle 1.1865e-015 -8.74653e-015
rhumerus -34.8694 -12.1087 -81.0174
rradius 32.0177
rwrist -8.70461
rhand -16.9727 -37.1851
rfingers 7.12502
rthumb 9.26173 -66.9617
lclavicle 1.1865e-015 -8.74653e-015
lhumerus -41.4933 22.2681 72.7516
lradius 13.6478
lwrist -30.5549
lhand -11.9544 -15.9516
lfingers 7.12502
lthumb 14.1009 13.55
rfemur -26.0327 -1.62493 24.6411
rtibia 34.8716
rfoot -25.1539 6.91521
rtoes -6.59006
lfemur -44.6446 3.99713 -22.3998
ltibia 67.0479
lfoot -5.84641 3.97522
ltoes 2.33534
113
root -0.0665778 16.4536 -17.5466 16.1969 3.40539 0.0186865
lowerback -15.337 -0.379662 0.445587
upperback -4.81211 -0.641111 1.7766
thorax 3.51058 -0.308197 1.49754
lowerneck -2.63675 -1.49744 0.520669
upperneck 11.7778 -1.72742 -2.94817
head 4.30755 -0.966048 -1.16056
rclavicle 4.53788e-015 -2.38542e-015
rhumerus -34.1222 -10.2342 -82.0818
rradius 34.0501
rwrist -10.1557
rhand -16.4676 -37.301
rfingers 7.12502
rthumb 9.74904 -67.0553
lclavicle 4.53788e-015 -2.38542e-015
lhumerus -43.6197 26.3573 68.5324
lradius 12.4555
lwrist -36.9614
lhand -10.8754 -15.9122
lfingers 7.12502
lthumb 15.1405 13.5139
rfemur -25.265 -2.4058 24.7296
rtibia 34.5571
rfoot -25.6891 8.08232
rtoes -5.23159
lfemur -45.6467 4.02259 -22.5986
ltibia 65.0616
lfoot -6.16273 4.55008
ltoes 3.66495
114
root -0.0674606 16.4439 -17.3471 16.4545 3.35355 0.0608118
lowerback -15.3476 -0.388231 0.319327
upperback -4.91628 -0.629086 1.71787
thorax 3.40687 -0.301854 1.50955
lowerneck -2.75627 -1.54033 0.539307
upperneck 11.849 -1.78707 -2.92947
head 4.35592 -0.994925 -1.16326
rclavicle 9.31803e-017 -9.93923e-015
rhumerus -33.2478 -8.7703 -82.8976
rradius 35.6491
rwrist -11.2914
rhand -15.9046 -37.1748
rfingers 7.12502
rthumb 10.2922 -66.903
lclavicle 9.31803e-017 -9.93923e-015
lhumerus -46.4731 30.2823 63.6571
lradius 11.5732
lwrist -43.4974
lhand -9.80744 -15.9711
lfingers 7.12502
lthumb 16.1691 13.3745
rfemur -24.5875 -3.09681 24.8128
rtibia 34.2191
rfoot -26.2357 8.67113
rtoes -5.27658
lfemur -46.7726 3.92109 -22.8139
ltibia 62.8396
lfoot -6.8833 5.13101
ltoes 0.518397
115
root -0.0642155 16.4315 -17.1493 16.5697 3.40204 0.155061
lowerback -15.1859 -0.437274 0.248327
upperback -4.99144 -0.676293 1.63328
thorax 3.24215 -0.325034 1.45304
lowerneck -2.95346 -1.5303 0.434417
upperneck 11.9833 -1.77988 -2.77969
head 4.4462 -0.990815 -1.09896
rclavicle 5.64051e-015 7.15625e-015
rhumerus -32.3786 -7.21757 -83.7036
rradius 37.3154
rwrist -12.5889
rhand -15.6303 -37.2092
rfingers 7.12502
rthumb 10.5568 -66.924
lclavicle 5.64051e-015 7.15625e-015
lhumerus -49.8457 33.9317 58.205
lradius 10.7859
lwrist -49.7681
lhand -8.5686 -15.404
lfingers 7.12502
lthumb 17.3617 13.8406
rfemur -23.7237 -3.86273 24.8329
rtibia 33.9006
rfoot -26.9446 8.96124
rtoes -5.55713
lfemur -47.5918 3.70418 -23.0526
ltibia 60.4052
lfoot -8.50186 5.69812
ltoes -4.83427
116
root -0.0571355 16.4205 -16.9404 16.6407 3.24244 0.167975
lowerback -15.2231 -0.372055 0.268421
upperback -4.95235 -0.589655 1.52043
thorax 3.29984 -0.282957 1.33832
lowerneck -3.04638 -1.53662 0.44628
upperneck 12.0166 -1.80223 -2.65775
head 4.47726 -0.996077 -1.06278
rclavicle -5.92782e-015 -6.75868e-015
rhumerus -31.6223 -5.72166 -84.3903
rradius 39.2
rwrist -13.8656
rhand -15.0604 -36.6627
rfingers 7.12502
rthumb 11.1065 -66.3488
lclavicle -5.92782e-015 -6.75868e-015
lhumerus -53.0342 36.3804 53.4582
lradius 10.3188
lwrist -54.5632
lhand -7.39006 -14.6734
lfingers 7.12502
lthumb 18.4956 14.4673
rfemur -22.7905 -4.62639 24.8449
rtibia 33.5347
rfoot -27.5407 9.89261
rtoes -3.91743
lfemur -48.08 3.62716 -23.194
ltibia 57.7167
lfoot -9.86793 5.73621
ltoes -4.16571
117
root -0.0520317 16.4005 -16.7292 16.7929 2.93389 0.280549
lowerback -15.3788 -0.2746 0.107522
upperback -4.93619 -0.433165 1.38105
thorax 3.39684 -0.205992 1.31071
lowerneck -2.90905 -1.55433 0.552436
upperneck 11.8629 -1.84503 -2.58308
head 4.39246 -1.00745 -1.05378
rclavicle -1.00479e-015 -1.23246e-014
rhumerus -31.0619 -4.32786 -84.9533
rradius 41.219
rwrist -15.2591
rhand -14.5995 -36.6491
rfingers 7.12502
rthumb 11.551 -66.3108
lclavicle -1.00479e-015 -1.23246e-014
lhumerus -55.7843 37.59 49.8285
lradius 10.1
lwrist -57.8445
lhand -6.82183 -14.4649
lfingers 7.12502
lthumb 19.0422 14.623
rfemur -21.931 -5.25218 24.6944
rtibia 33.1132
rfoot -28.0032 10.9173
rtoes -2.50762
lfemur -48.3811 3.51981 -23.3617
ltibia 54.8125
lfoot -10.5164 5.65425
ltoes 2.09934
118
root -0.0438638 16.4017 -16.5168 16.8871 2.59472 0.358955
lowerback -15.4071 -0.175234 0.0539003
upperback -4.93507 -0.288879 1.24757
thorax 3.40952 -0.135198 1.22681
lowerneck -2.86323 -1.50117 0.596261
upperneck 11.7414 -1.7948 -2.43556
head 4.3407 -0.973091 -1.00691
rclavicle 9.29357e-015 -1.51076e-014
rhumerus -30.5687 -2.75351 -85.5561
rradius 43.1264
rwrist -16.771
rhand -15.5016 -37.5412
rfingers 7.12502
rthumb 10.6809 -67.2497
lclavicle 9.29357e-015 -1.51076e-014
lhumerus -57.4329 37.5747 48.0959
lradius 9.94278
lwrist -58.9302
lhand -6.34645 -14.0382
lfingers 7.12502
lthumb 19.4993 15.004
rfemur -20.9139 -5.91282 24.5236
rtibia 32.5288
rfoot -28.3336 11.9999
rtoes -1.20489
lfemur -48.7869 3.48529 -23.5838
ltibia 51.6656
lfoot -10.207 6.82937
ltoes -0.625607
119
root -0.0346025 16.398 -16.3043 16.9512 2.22544 0.302682
lowerback -15.4059 -0.0550619 0.134008
upperback -4.89692 -0.139833 1.16558
thorax 3.44558 -0.0622593 1.12223
lowerneck -3.08247 -1.44635 0.64334
upperneck 11.6987 -1.73188 -2.37427
head 4.37028 -0.938031 -0.994282
rclavicle 6.98852e-016 -1.59028e-015
rhumerus -29.9237 -1.13404 -86.1106
rradius 44.8869
rwrist -18.1961
rhand -16.8613 -39.0681
rfingers 7.12502
rthumb 9.36918 -68.8399
lclavicle 6.98852e-016 -1.59028e-015
lhumerus -59.0701 37.5531 46.3471
lradius 9.89921
lwrist -59.8662
lhand -5.5888 -13.3556
lfingers 7.12502
lthumb 20.2276 15.6112
rfemur -19.8631 -6.58869 24.4452
rtibia 31.87
rfoot -28.4014 13.4877
rtoes 1.20157
lfemur -48.9971 3.50656 -23.608
ltibia 48.3604
lfoot -9.93277 7.62906
ltoes -2.93038
120
root -0.0266673 16.3881 -16.0901 17.0707 1.85408 0.14613
lowerback -15.5088 0.0432551 0.215739
upperback -4.86132 -0.0264151 1.20739
thorax 3.53598 -0.00652103 1.14086
lowerneck -3.27041 -1.41309 0.559831
upperneck 11.623 -1.67515 -2.43761
head 4.3818 -0.917428 -0.999755
rclavicle -1.49182e-014 1.23246e-014
rhumerus -29.089 0.132288 -86.264
rradius 46.3517
rwrist -18.5012
rhand -16.6483 -38.8335
rfingers 7.12502
rthumb 9.57469 -68.5959
lclavicle -1.49182e-014 1.23246e-014
lhumerus -60.8537 37.56 44.5897
lradius 9.98134
lwrist -60.5239
lhand -5.19026 -12.8174
lfingers 7.12502
lthumb 20.6106 16.1084
rfemur -18.7573 -7.2306 24.4776
rtibia 31.0825
rfoot -28.6305 14.3575
rtoes 1.03257
lfemur -49.1412 3.54886 -23.4683
ltibia 44.9061
lfoot -9.8538 7.83034
ltoes -2.6362
121
root -0.0163189 16.3752 -15.8768 17.1649 1.33083 -0.0131326
lowerback -15.4591 0.177814 0.294404
upperback -4.91404 0.137615 1.24615
thorax 3.45082 0.0747454 1.1663
lowerneck -3.1222 -1.35422 0.397392
upperneck 11.4303 -1.58822 -2.4279
head 4.28507 -0.879696 -0.958768
rclavicle -5.77252e-015 8.34896e-015
rhumerus -28.3944 1.18633 -86.2334
rradius 47.6131
rwrist -18.0357
rhand -15.6215 -34.6867
rfingers 7.12502
rthumb 10.5652 -64.4011
lclavicle -5.77252e-015 8.34896e-015
lhumerus -62.8023 37.4396 42.7188
lradius 10.0527
lwrist -60.8772
lhand -5.11884 -12.5857
lfingers 7.12502
lthumb 20.6792 16.3326
rfemur -17.5774 -7.84103 24.44
rtibia 30.2243
rfoot -29.0053 14.9422
rtoes -0.529259
lfemur -49.2415 3.6797 -23.3213
ltibia 41.3746
lfoot -9.65521 8.14987
ltoes -4.12686
122
root -0.0072255 16.3613 -15.6627 17.231 0.769773 -0.0690377
lowerback -15.3346 0.363267 0.26505
upperback -4.98375 0.391062 1.17688
thorax 3.3064 0.20031 1.15416
lowerneck -2.92574 -1.31826 0.460344
upperneck 11.2139 -1.55128 -2.39842
head 4.16823 -0.855536 -0.952663
rclavicle -3.87785e-015 -6.75868e-015
rhumerus -27.9968 2.172 -86.2911
rradius 49.3118
rwrist -18.1642
rhand -14.6654 -36.6505
rfingers 7.12502
rthumb 11.4874 -66.3158
lclavicle -3.87785e-015 -6.75868e-015
lhumerus -63.0935 35.9966 43.3808
lradius 10.0869
lwrist -58.9498
lhand -5.34343 -12.5953
lfingers 7.12502
lthumb 20.4634 16.3464
rfemur -16.3589 -8.17613 24.2157
rtibia 29.2677
rfoot -28.9766 16.0681
rtoes 0.559865
lfemur -49.2749 3.80034 -23.2347
ltibia 37.8045
lfoot -9.21346 8.32575
ltoes -7.36071
